# xmcd
#
# Track frame offsets:
#	150
#	17462
#	31384
#	48899
#	64627
#	77998
#	91391
#	109389
#	125008
#	140797
#	155898
#	172126
#	186257
#	203355
#
# Disc length: 2955
#
# Revision: 1
# Processed by: cddbd v1.5.1PL0 Copyright (c) Steve Scherf et al.
# Submitted via: EasyCDDAExtractor 5.0.0.0
# Normalized: r0:TSWAP
#
DISCID=c50b890e
DTITLE=Various Artist - Mr Music Country 04-12
DYEAR=1900
DGENRE=Country
TTITLE0=Ed Bruce - My first taste of Texas
TTITLE1=Joe Slick - I pray there's a honky tonk in heaven
TTITLE2=Darryl Lee O'Donnell - How do I get to you from here
TTITLE3=Rachel Proctor - Shame on me
TTITLE4=Roger Creager and John Evans - Mother's a redneck too
TTITLE5=Leona Williams and Ron Williams - Where no one stands alone
TTITLE6=Alan Jackson - Strong enough
TTITLE7=Stacey Kostes - I only want you for Christmas
TTITLE8=Justin Trevino - Texas honky tonk
TTITLE9=Sanger D. "Whitey" Shafer - All my ex's live in Texas
TTITLE10=David Ball - She always talked about Mexico
TTITLE11=Borderline - My Dixie darling
TTITLE12=Leland Martin - Flags on the Christmas tree
TTITLE13=Waylon Jennings - Lucille
EXTD=
EXTT0=
EXTT1=
EXTT2=
EXTT3=
EXTT4=
EXTT5=
EXTT6=
EXTT7=
EXTT8=
EXTT9=
EXTT10=
EXTT11=
EXTT12=
EXTT13=
PLAYORDER=
